{"title":"Carly Rae Jepsen - Run Away With Me (2015.Pop)","uid":12161993,"size":135940929,"categoryP":"video","categoryS":"music_videos","magnet":"?xt=urn:btih:8ffea7c7bff59ebe708c94d62a9c060770fe68cd&amp;dn=Carly+Rae+Jepsen+-+Run+Away+With+Me+%282015.Pop%29&amp;tr=udp%3A%2F%2Ftracker.openbittorrent.com%3A80&amp;tr=udp%3A%2F%2Fopen.demonii.com%3A1337&amp;tr=udp%3A%2F%2Ftracker.coppersurfer.tk%3A6969&amp;tr=udp%3A%2F%2Fexodus.desync.com%3A6969","seeders":0,"leechers":0,"uploader":"MeRaDil","files":1,"time":1437933548,"description":"CARLY RAE JEPSEN - RUN AWAY WITH ME\n\n &lt;a href=&quot;\nhttp://gifyu.com/images/CarlyRae1.png&quot; rel=&quot;nofollow&quot; target=&quot;_NEW&quot;&gt;\nhttp://gifyu.com/images/CarlyRae1.png&lt;/a&gt;\n &lt;a href=&quot;\nhttp://gifyu.com/images/CarlyRae2.png&quot; rel=&quot;nofollow&quot; target=&quot;_NEW&quot;&gt;\nhttp://gifyu.com/images/CarlyRae2.png&lt;/a&gt;\n\n\nGeneral\nCarly Rae Jepsen - Run Away With Me\nFormat                                   : MPEG-4\nFormat profile                           : Base Media\nCodec ID                                 : isom\nFile size                                : 130 MiB\nDuration                                 : 4mn 12s\nOverall bit rate                         : 4 310 Kbps\nMusicVid name                            : Run Away With Me\nAlbum                                    : Emotion\nPerformer                                : Carly Rae Jepsen\nGenre                                    : Pop\nContentType                              : Music Video\nRecorded date                            : july 2015\nCover                                    : Yes\nRating                                   : ***\nMake                                     : MeRaDil\nArtist url                               : https://www.carlyraemusic.com\nRelease                                  : Canada - july 17 - 2015\n\nVideo\nID                                       : 1\nFormat                                   : AVC\nFormat/Info                              : Advanced Video Codec\nFormat profile                           : &lt;a class=&quot;__cf_email__&quot; href=&quot;/cdn-cgi/l/email-protection&quot; data-cfemail=&quot;eda5848a85ada1d9c3dd&quot;&gt;[email&amp;#160;protected]&lt;/a&gt;&lt;script data-cfhash='f9e31' type=&quot;text/javascript&quot;&gt;\n/* &lt;![CDATA[ */!function(){try{var t=&quot;currentScript&quot;in document?document.currentScript:function(){for(var t=document.getElementsByTagName(&quot;script&quot;),e=t.length;e--;)if(t[e].getAttribute(&quot;data-cfhash&quot;))return t[e]}();if(t&amp;&amp;t.previousSibling){var e,r,n,i,c=t.previousSibling,a=c.getAttribute(&quot;data-cfemail&quot;);if(a){for(e=&quot;&quot;,r=parseInt(a.substr(0,2),16),n=2;a.length-n;n+=2)i=parseInt(a.substr(n,2),16)^r,e+=String.fromCharCode(i);e=document.createTextNode(e),c.parentNode.replaceChild(e,c)}t.parentNode.removeChild(t);}}catch(u){}}()/* ]]&gt; */&lt;/script&gt;\nFormat settings, CABAC                   : Yes\nFormat settings, ReFrames                : 2 frames\nCodec ID                                 : avc1\nCodec ID/Info                            : Advanced Video Coding\nDuration                                 : 4mn 12s\nBit rate                                 : 4 047 Kbps\nWidth                                    : 1 920 pixels\nHeight                                   : 1 080 pixels\nDisplay aspect ratio                     : 16:9\nFrame rate mode                          : Variable\nFrame rate                               : 23.976 fps\nMinimum frame rate                       : 23.974 fps\nMaximum frame rate                       : 23.981 fps\nColor space                              : YUV\nChroma subsampling                       : 4:2:0\nBit depth                                : 8 bits\nScan type                                : Progressive\nBits/(Pixel*Frame)                       : 0.081\nStream size                              : 122 MiB (94%)\n\nAudio\nID                                       : 2\nFormat                                   : AAC\nFormat/Info                              : Advanced Audio Codec\nFormat profile                           : LC\nCodec ID                                 : 40\nDuration                                 : 4mn 12s\nBit rate mode                            : Constant\nBit rate                                 : 256 Kbps\nChannel(s)                               : 2 channels\nChannel positions                        : Front: L R\nSampling rate                            : 44.1 KHz\nCompression mode                         : Lossy\nStream size                              : 7.70 MiB (6%)\n &lt;a href=&quot;\nhttps://thepiratebay.se/user/MeRaDil&quot; rel=&quot;nofollow&quot; target=&quot;_NEW&quot;&gt;\nhttps://thepiratebay.se/user/MeRaDil&lt;/a&gt;\n\nCarly Rae Jepsen * Emotion * Pop * Promo","torrent":{"xt":"urn:btih:8ffea7c7bff59ebe708c94d62a9c060770fe68cd","amp;dn":"Carly+Rae+Jepsen+-+Run+Away+With+Me+%282015.Pop%29","amp;tr":["udp%3A%2F%2Ftracker.openbittorrent.com%3A80","udp%3A%2F%2Fopen.demonii.com%3A1337","udp%3A%2F%2Ftracker.coppersurfer.tk%3A6969","udp%3A%2F%2Fexodus.desync.com%3A6969"],"infoHash":"8ffea7c7bff59ebe708c94d62a9c060770fe68cd","infoHashBuffer":{"type":"Buffer","data":[143,254,167,199,191,245,158,190,112,140,148,214,42,156,6,7,112,254,104,205]},"announce":[],"urlList":[]}}